<?xml version="1.0" encoding="utf-8" standalone="no"?>
<!DOCTYPE svg PUBLIC "-//W3C//DTD SVG 1.1//EN"
  "http://www.w3.org/Graphics/SVG/1.1/DTD/svg11.dtd">
<!-- Created with matplotlib (https://matplotlib.org/) -->
<svg height="687.6pt" version="1.1" viewBox="0 0 1382.4 687.6" width="1382.4pt" xmlns="http://www.w3.org/2000/svg" xmlns:xlink="http://www.w3.org/1999/xlink">
 <defs>
  <style type="text/css">
*{stroke-linecap:butt;stroke-linejoin:round;white-space:pre;}
  </style>
 </defs>
 <g id="figure_1">
  <g id="patch_1">
   <path d="M 0 687.6 
L 1382.4 687.6 
L 1382.4 0 
L 0 0 
z
" style="fill:#ffffff;"/>
  </g>
  <g id="axes_1">
   <g id="patch_2">
    <path d="M 88.594892 629.785204 
L 1293.805108 629.785204 
L 1293.805108 18.118365 
L 88.594892 18.118365 
z
" style="fill:#ffffff;"/>
   </g>
   <g id="matplotlib.axis_1">
    <g id="xtick_1">
     <g id="line2d_1">
      <path clip-path="url(#pb6ca96dd1a)" d="M 211.655716 629.785204 
L 211.655716 18.118365 
" style="fill:none;stroke:#b0b0b0;stroke-linecap:square;stroke-width:0.8;"/>
     </g>
     <g id="line2d_2">
      <defs>
       <path d="M 0 0 
L 0 3.5 
" id="mdad61c3bb8" style="stroke:#000000;stroke-width:0.8;"/>
      </defs>
      <g>
       <use style="stroke:#000000;stroke-width:0.8;" x="211.655716" xlink:href="#mdad61c3bb8" y="629.785204"/>
      </g>
     </g>
     <g id="text_1">
      <!-- −1500 -->
      <defs>
       <path d="M 10.59375 35.5 
L 73.1875 35.5 
L 73.1875 27.203125 
L 10.59375 27.203125 
z
" id="DejaVuSans-8722"/>
       <path d="M 12.40625 8.296875 
L 28.515625 8.296875 
L 28.515625 63.921875 
L 10.984375 60.40625 
L 10.984375 69.390625 
L 28.421875 72.90625 
L 38.28125 72.90625 
L 38.28125 8.296875 
L 54.390625 8.296875 
L 54.390625 0 
L 12.40625 0 
z
" id="DejaVuSans-49"/>
       <path d="M 10.796875 72.90625 
L 49.515625 72.90625 
L 49.515625 64.59375 
L 19.828125 64.59375 
L 19.828125 46.734375 
Q 21.96875 47.46875 24.109375 47.828125 
Q 26.265625 48.1875 28.421875 48.1875 
Q 40.625 48.1875 47.75 41.5 
Q 54.890625 34.8125 54.890625 23.390625 
Q 54.890625 11.625 47.5625 5.09375 
Q 40.234375 -1.421875 26.90625 -1.421875 
Q 22.3125 -1.421875 17.546875 -0.640625 
Q 12.796875 0.140625 7.71875 1.703125 
L 7.71875 11.625 
Q 12.109375 9.234375 16.796875 8.0625 
Q 21.484375 6.890625 26.703125 6.890625 
Q 35.15625 6.890625 40.078125 11.328125 
Q 45.015625 15.765625 45.015625 23.390625 
Q 45.015625 31 40.078125 35.4375 
Q 35.15625 39.890625 26.703125 39.890625 
Q 22.75 39.890625 18.8125 39.015625 
Q 14.890625 38.140625 10.796875 36.28125 
z
" id="DejaVuSans-53"/>
       <path d="M 31.78125 66.40625 
Q 24.171875 66.40625 20.328125 58.90625 
Q 16.5 51.421875 16.5 36.375 
Q 16.5 21.390625 20.328125 13.890625 
Q 24.171875 6.390625 31.78125 6.390625 
Q 39.453125 6.390625 43.28125 13.890625 
Q 47.125 21.390625 47.125 36.375 
Q 47.125 51.421875 43.28125 58.90625 
Q 39.453125 66.40625 31.78125 66.40625 
z
M 31.78125 74.21875 
Q 44.046875 74.21875 50.515625 64.515625 
Q 56.984375 54.828125 56.984375 36.375 
Q 56.984375 17.96875 50.515625 8.265625 
Q 44.046875 -1.421875 31.78125 -1.421875 
Q 19.53125 -1.421875 13.0625 8.265625 
Q 6.59375 17.96875 6.59375 36.375 
Q 6.59375 54.828125 13.0625 64.515625 
Q 19.53125 74.21875 31.78125 74.21875 
z
" id="DejaVuSans-48"/>
      </defs>
      <g transform="translate(205.587983 669.881791)rotate(-60)scale(0.1 -0.1)">
       <use xlink:href="#DejaVuSans-8722"/>
       <use x="83.789062" xlink:href="#DejaVuSans-49"/>
       <use x="147.412109" xlink:href="#DejaVuSans-53"/>
       <use x="211.035156" xlink:href="#DejaVuSans-48"/>
       <use x="274.658203" xlink:href="#DejaVuSans-48"/>
      </g>
     </g>
    </g>
    <g id="xtick_2">
     <g id="line2d_3">
      <path clip-path="url(#pb6ca96dd1a)" d="M 371.491699 629.785204 
L 371.491699 18.118365 
" style="fill:none;stroke:#b0b0b0;stroke-linecap:square;stroke-width:0.8;"/>
     </g>
     <g id="line2d_4">
      <g>
       <use style="stroke:#000000;stroke-width:0.8;" x="371.491699" xlink:href="#mdad61c3bb8" y="629.785204"/>
      </g>
     </g>
     <g id="text_2">
      <!-- −1000 -->
      <g transform="translate(365.423966 669.881791)rotate(-60)scale(0.1 -0.1)">
       <use xlink:href="#DejaVuSans-8722"/>
       <use x="83.789062" xlink:href="#DejaVuSans-49"/>
       <use x="147.412109" xlink:href="#DejaVuSans-48"/>
       <use x="211.035156" xlink:href="#DejaVuSans-48"/>
       <use x="274.658203" xlink:href="#DejaVuSans-48"/>
      </g>
     </g>
    </g>
    <g id="xtick_3">
     <g id="line2d_5">
      <path clip-path="url(#pb6ca96dd1a)" d="M 531.327682 629.785204 
L 531.327682 18.118365 
" style="fill:none;stroke:#b0b0b0;stroke-linecap:square;stroke-width:0.8;"/>
     </g>
     <g id="line2d_6">
      <g>
       <use style="stroke:#000000;stroke-width:0.8;" x="531.327682" xlink:href="#mdad61c3bb8" y="629.785204"/>
      </g>
     </g>
     <g id="text_3">
      <!-- −500 -->
      <g transform="translate(526.850574 664.371705)rotate(-60)scale(0.1 -0.1)">
       <use xlink:href="#DejaVuSans-8722"/>
       <use x="83.789062" xlink:href="#DejaVuSans-53"/>
       <use x="147.412109" xlink:href="#DejaVuSans-48"/>
       <use x="211.035156" xlink:href="#DejaVuSans-48"/>
      </g>
     </g>
    </g>
    <g id="xtick_4">
     <g id="line2d_7">
      <path clip-path="url(#pb6ca96dd1a)" d="M 691.163666 629.785204 
L 691.163666 18.118365 
" style="fill:none;stroke:#b0b0b0;stroke-linecap:square;stroke-width:0.8;"/>
     </g>
     <g id="line2d_8">
      <g>
       <use style="stroke:#000000;stroke-width:0.8;" x="691.163666" xlink:href="#mdad61c3bb8" y="629.785204"/>
      </g>
     </g>
     <g id="text_4">
      <!-- 0 -->
      <g transform="translate(691.962729 646.094509)rotate(-60)scale(0.1 -0.1)">
       <use xlink:href="#DejaVuSans-48"/>
      </g>
     </g>
    </g>
    <g id="xtick_5">
     <g id="line2d_9">
      <path clip-path="url(#pb6ca96dd1a)" d="M 850.999649 629.785204 
L 850.999649 18.118365 
" style="fill:none;stroke:#b0b0b0;stroke-linecap:square;stroke-width:0.8;"/>
     </g>
     <g id="line2d_10">
      <g>
       <use style="stroke:#000000;stroke-width:0.8;" x="850.999649" xlink:href="#mdad61c3bb8" y="629.785204"/>
      </g>
     </g>
     <g id="text_5">
      <!-- 500 -->
      <g transform="translate(848.617463 657.114682)rotate(-60)scale(0.1 -0.1)">
       <use xlink:href="#DejaVuSans-53"/>
       <use x="63.623047" xlink:href="#DejaVuSans-48"/>
       <use x="127.246094" xlink:href="#DejaVuSans-48"/>
      </g>
     </g>
    </g>
    <g id="xtick_6">
     <g id="line2d_11">
      <path clip-path="url(#pb6ca96dd1a)" d="M 1010.835632 629.785204 
L 1010.835632 18.118365 
" style="fill:none;stroke:#b0b0b0;stroke-linecap:square;stroke-width:0.8;"/>
     </g>
     <g id="line2d_12">
      <g>
       <use style="stroke:#000000;stroke-width:0.8;" x="1010.835632" xlink:href="#mdad61c3bb8" y="629.785204"/>
      </g>
     </g>
     <g id="text_6">
      <!-- 1000 -->
      <g transform="translate(1006.862821 662.624769)rotate(-60)scale(0.1 -0.1)">
       <use xlink:href="#DejaVuSans-49"/>
       <use x="63.623047" xlink:href="#DejaVuSans-48"/>
       <use x="127.246094" xlink:href="#DejaVuSans-48"/>
       <use x="190.869141" xlink:href="#DejaVuSans-48"/>
      </g>
     </g>
    </g>
    <g id="xtick_7">
     <g id="line2d_13">
      <path clip-path="url(#pb6ca96dd1a)" d="M 1170.671615 629.785204 
L 1170.671615 18.118365 
" style="fill:none;stroke:#b0b0b0;stroke-linecap:square;stroke-width:0.8;"/>
     </g>
     <g id="line2d_14">
      <g>
       <use style="stroke:#000000;stroke-width:0.8;" x="1170.671615" xlink:href="#mdad61c3bb8" y="629.785204"/>
      </g>
     </g>
     <g id="text_7">
      <!-- 1500 -->
      <g transform="translate(1166.698804 662.624769)rotate(-60)scale(0.1 -0.1)">
       <use xlink:href="#DejaVuSans-49"/>
       <use x="63.623047" xlink:href="#DejaVuSans-53"/>
       <use x="127.246094" xlink:href="#DejaVuSans-48"/>
       <use x="190.869141" xlink:href="#DejaVuSans-48"/>
      </g>
     </g>
    </g>
    <g id="text_8">
     <!-- x (km) -->
     <defs>
      <path d="M 54.890625 54.6875 
L 35.109375 28.078125 
L 55.90625 0 
L 45.3125 0 
L 29.390625 21.484375 
L 13.484375 0 
L 2.875 0 
L 24.125 28.609375 
L 4.6875 54.6875 
L 15.28125 54.6875 
L 29.78125 35.203125 
L 44.28125 54.6875 
z
" id="DejaVuSans-120"/>
      <path id="DejaVuSans-32"/>
      <path d="M 31 75.875 
Q 24.46875 64.65625 21.28125 53.65625 
Q 18.109375 42.671875 18.109375 31.390625 
Q 18.109375 20.125 21.3125 9.0625 
Q 24.515625 -2 31 -13.1875 
L 23.1875 -13.1875 
Q 15.875 -1.703125 12.234375 9.375 
Q 8.59375 20.453125 8.59375 31.390625 
Q 8.59375 42.28125 12.203125 53.3125 
Q 15.828125 64.359375 23.1875 75.875 
z
" id="DejaVuSans-40"/>
      <path d="M 9.078125 75.984375 
L 18.109375 75.984375 
L 18.109375 31.109375 
L 44.921875 54.6875 
L 56.390625 54.6875 
L 27.390625 29.109375 
L 57.625 0 
L 45.90625 0 
L 18.109375 26.703125 
L 18.109375 0 
L 9.078125 0 
z
" id="DejaVuSans-107"/>
      <path d="M 52 44.1875 
Q 55.375 50.25 60.0625 53.125 
Q 64.75 56 71.09375 56 
Q 79.640625 56 84.28125 50.015625 
Q 88.921875 44.046875 88.921875 33.015625 
L 88.921875 0 
L 79.890625 0 
L 79.890625 32.71875 
Q 79.890625 40.578125 77.09375 44.375 
Q 74.3125 48.1875 68.609375 48.1875 
Q 61.625 48.1875 57.5625 43.546875 
Q 53.515625 38.921875 53.515625 30.90625 
L 53.515625 0 
L 44.484375 0 
L 44.484375 32.71875 
Q 44.484375 40.625 41.703125 44.40625 
Q 38.921875 48.1875 33.109375 48.1875 
Q 26.21875 48.1875 22.15625 43.53125 
Q 18.109375 38.875 18.109375 30.90625 
L 18.109375 0 
L 9.078125 0 
L 9.078125 54.6875 
L 18.109375 54.6875 
L 18.109375 46.1875 
Q 21.1875 51.21875 25.484375 53.609375 
Q 29.78125 56 35.6875 56 
Q 41.65625 56 45.828125 52.96875 
Q 50 49.953125 52 44.1875 
z
" id="DejaVuSans-109"/>
      <path d="M 8.015625 75.875 
L 15.828125 75.875 
Q 23.140625 64.359375 26.78125 53.3125 
Q 30.421875 42.28125 30.421875 31.390625 
Q 30.421875 20.453125 26.78125 9.375 
Q 23.140625 -1.703125 15.828125 -13.1875 
L 8.015625 -13.1875 
Q 14.5 -2 17.703125 9.0625 
Q 20.90625 20.125 20.90625 31.390625 
Q 20.90625 42.671875 17.703125 53.65625 
Q 14.5 64.65625 8.015625 75.875 
z
" id="DejaVuSans-41"/>
     </defs>
     <g transform="translate(674.984375 682.520072)scale(0.1 -0.1)">
      <use xlink:href="#DejaVuSans-120"/>
      <use x="59.179688" xlink:href="#DejaVuSans-32"/>
      <use x="90.966797" xlink:href="#DejaVuSans-40"/>
      <use x="129.980469" xlink:href="#DejaVuSans-107"/>
      <use x="187.890625" xlink:href="#DejaVuSans-109"/>
      <use x="285.302734" xlink:href="#DejaVuSans-41"/>
     </g>
    </g>
   </g>
   <g id="matplotlib.axis_2">
    <g id="ytick_1">
     <g id="line2d_15">
      <path clip-path="url(#pb6ca96dd1a)" d="M 88.594892 615.030149 
L 1293.805108 615.030149 
" style="fill:none;stroke:#b0b0b0;stroke-linecap:square;stroke-width:0.8;"/>
     </g>
     <g id="line2d_16">
      <defs>
       <path d="M 0 0 
L -3.5 0 
" id="m1845523cc7" style="stroke:#000000;stroke-width:0.8;"/>
      </defs>
      <g>
       <use style="stroke:#000000;stroke-width:0.8;" x="88.594892" xlink:href="#m1845523cc7" y="615.030149"/>
      </g>
     </g>
     <g id="text_9">
      <!-- 0 -->
      <g transform="translate(75.232392 618.829368)scale(0.1 -0.1)">
       <use xlink:href="#DejaVuSans-48"/>
      </g>
     </g>
    </g>
    <g id="ytick_2">
     <g id="line2d_17">
      <path clip-path="url(#pb6ca96dd1a)" d="M 88.594892 455.194166 
L 1293.805108 455.194166 
" style="fill:none;stroke:#b0b0b0;stroke-linecap:square;stroke-width:0.8;"/>
     </g>
     <g id="line2d_18">
      <g>
       <use style="stroke:#000000;stroke-width:0.8;" x="88.594892" xlink:href="#m1845523cc7" y="455.194166"/>
      </g>
     </g>
     <g id="text_10">
      <!-- 500 -->
      <g transform="translate(62.507392 458.993385)scale(0.1 -0.1)">
       <use xlink:href="#DejaVuSans-53"/>
       <use x="63.623047" xlink:href="#DejaVuSans-48"/>
       <use x="127.246094" xlink:href="#DejaVuSans-48"/>
      </g>
     </g>
    </g>
    <g id="ytick_3">
     <g id="line2d_19">
      <path clip-path="url(#pb6ca96dd1a)" d="M 88.594892 295.358183 
L 1293.805108 295.358183 
" style="fill:none;stroke:#b0b0b0;stroke-linecap:square;stroke-width:0.8;"/>
     </g>
     <g id="line2d_20">
      <g>
       <use style="stroke:#000000;stroke-width:0.8;" x="88.594892" xlink:href="#m1845523cc7" y="295.358183"/>
      </g>
     </g>
     <g id="text_11">
      <!-- 1000 -->
      <g transform="translate(56.144892 299.157402)scale(0.1 -0.1)">
       <use xlink:href="#DejaVuSans-49"/>
       <use x="63.623047" xlink:href="#DejaVuSans-48"/>
       <use x="127.246094" xlink:href="#DejaVuSans-48"/>
       <use x="190.869141" xlink:href="#DejaVuSans-48"/>
      </g>
     </g>
    </g>
    <g id="ytick_4">
     <g id="line2d_21">
      <path clip-path="url(#pb6ca96dd1a)" d="M 88.594892 135.5222 
L 1293.805108 135.5222 
" style="fill:none;stroke:#b0b0b0;stroke-linecap:square;stroke-width:0.8;"/>
     </g>
     <g id="line2d_22">
      <g>
       <use style="stroke:#000000;stroke-width:0.8;" x="88.594892" xlink:href="#m1845523cc7" y="135.5222"/>
      </g>
     </g>
     <g id="text_12">
      <!-- 1500 -->
      <g transform="translate(56.144892 139.321419)scale(0.1 -0.1)">
       <use xlink:href="#DejaVuSans-49"/>
       <use x="63.623047" xlink:href="#DejaVuSans-53"/>
       <use x="127.246094" xlink:href="#DejaVuSans-48"/>
       <use x="190.869141" xlink:href="#DejaVuSans-48"/>
      </g>
     </g>
    </g>
    <g id="text_13">
     <!-- y (km) -->
     <defs>
      <path d="M 32.171875 -5.078125 
Q 28.375 -14.84375 24.75 -17.8125 
Q 21.140625 -20.796875 15.09375 -20.796875 
L 7.90625 -20.796875 
L 7.90625 -13.28125 
L 13.1875 -13.28125 
Q 16.890625 -13.28125 18.9375 -11.515625 
Q 21 -9.765625 23.484375 -3.21875 
L 25.09375 0.875 
L 2.984375 54.6875 
L 12.5 54.6875 
L 29.59375 11.921875 
L 46.6875 54.6875 
L 56.203125 54.6875 
z
" id="DejaVuSans-121"/>
     </defs>
     <g transform="translate(50.065205 340.167409)rotate(-90)scale(0.1 -0.1)">
      <use xlink:href="#DejaVuSans-121"/>
      <use x="59.179688" xlink:href="#DejaVuSans-32"/>
      <use x="90.966797" xlink:href="#DejaVuSans-40"/>
      <use x="129.980469" xlink:href="#DejaVuSans-107"/>
      <use x="187.890625" xlink:href="#DejaVuSans-109"/>
      <use x="285.302734" xlink:href="#DejaVuSans-41"/>
     </g>
    </g>
   </g>
   <g id="line2d_23">
    <path clip-path="url(#pb6ca96dd1a)" d="M 1246.56174 615.030149 
L 1246.284923 597.497038 
L 1245.45475 579.981403 
L 1244.072047 562.500706 
L 1242.138193 545.072372 
L 1239.655116 527.713773 
L 1236.62529 510.442212 
L 1233.051737 493.274908 
L 1228.938018 476.228971 
L 1224.288233 459.321395 
L 1219.107019 442.569032 
L 1213.399539 425.988583 
L 1207.171482 409.596574 
L 1200.429058 393.409346 
L 1193.178988 377.443034 
L 1185.428497 361.713555 
L 1177.185313 346.236587 
L 1168.457651 331.027558 
L 1159.254213 316.101629 
L 1149.584171 301.473678 
L 1139.457167 287.158288 
L 1128.883293 273.169727 
L 1117.873091 259.52194 
L 1106.437536 246.228531 
L 1094.588027 233.302752 
L 1082.336375 220.757487 
L 1069.694794 208.605242 
L 1056.675885 196.85813 
L 1043.292626 185.527861 
L 1029.558357 174.625729 
L 1015.486768 164.162601 
L 1001.091887 154.148909 
L 986.388063 144.594632 
L 971.389953 135.509296 
L 956.112507 126.901957 
L 940.570955 118.781195 
L 924.780788 111.155104 
L 908.757746 104.031287 
L 892.517802 97.416845 
L 876.077143 91.318371 
L 859.452159 85.741945 
L 842.659421 80.693124 
L 825.715669 76.176942 
L 808.637793 72.197901 
L 791.442816 68.759966 
L 774.147878 65.866566 
L 756.77022 63.520584 
L 739.327164 61.724358 
L 721.836097 60.47968 
L 704.314455 59.78779 
L 686.779705 59.649378 
L 669.249324 60.064581 
L 651.740788 61.032986 
L 634.27155 62.553627 
L 616.859023 64.624989 
L 599.520565 67.245006 
L 582.273458 70.411068 
L 565.134896 74.120018 
L 548.121961 78.368159 
L 531.251614 83.151257 
L 514.540671 88.464542 
L 498.005789 94.30272 
L 481.663451 100.65997 
L 465.529948 107.529956 
L 449.621361 114.905829 
L 433.953549 122.780237 
L 418.542129 131.14533 
L 403.402465 139.99277 
L 388.549647 149.313737 
L 373.998481 159.098941 
L 359.763473 169.338627 
L 345.858811 180.022588 
L 332.298357 191.140174 
L 319.095628 202.680303 
L 306.263784 214.631471 
L 293.815617 226.981765 
L 281.763534 239.718874 
L 270.119551 252.830102 
L 258.895274 266.302378 
L 248.101891 280.122274 
L 237.750162 294.276014 
L 227.850405 308.749488 
L 218.412489 323.528269 
L 209.445822 338.597626 
L 200.959342 353.942536 
L 192.961508 369.547705 
L 185.460292 385.397576 
L 178.463173 401.476349 
L 171.977125 417.767998 
L 166.008613 434.256281 
L 160.563587 450.924764 
L 155.647475 467.756831 
L 151.265177 484.735704 
L 147.421061 501.844456 
L 144.11896 519.066034 
L 141.362166 536.383272 
L 139.153425 553.778906 
L 137.49494 571.235598 
L 136.388364 588.735944 
L 135.8348 606.262501 
L 135.8348 623.797798 
L 136.388364 641.324355 
L 137.49494 658.824701 
L 139.153425 676.281392 
L 140.71753 688.6 
M 1241.621501 688.6 
L 1242.138193 684.987927 
L 1244.072047 667.559593 
L 1245.45475 650.078895 
L 1246.284923 632.563261 
L 1246.56174 615.030149 
L 1246.56174 615.030149 
" style="fill:none;stroke:#1f77b4;stroke-linecap:square;stroke-width:1.5;"/>
   </g>
   <g id="line2d_24">
    <path clip-path="url(#pb6ca96dd1a)" d="M 1274.331643 615.030149 
L 1274.040986 596.620382 
L 1273.169304 578.228966 
L 1271.717466 559.874234 
L 1269.68692 541.574483 
L 1267.079689 523.347954 
L 1263.898372 505.212816 
L 1260.146141 487.187146 
L 1255.826735 469.288912 
L 1250.944462 451.535957 
L 1245.504186 433.945977 
L 1239.511332 416.536505 
L 1232.971873 399.324895 
L 1225.892328 382.328306 
L 1218.279754 365.563679 
L 1210.141739 349.047725 
L 1201.486395 332.796908 
L 1192.32235 316.827428 
L 1182.65874 301.155203 
L 1172.505197 285.795855 
L 1161.871842 270.764694 
L 1150.769274 256.076706 
L 1139.208562 241.746529 
L 1127.201229 227.78845 
L 1114.759245 214.216382 
L 1101.895011 201.043854 
L 1088.621351 188.283997 
L 1074.951496 175.949529 
L 1060.899074 164.052746 
L 1046.478091 152.605507 
L 1031.702923 141.619224 
L 1016.588298 131.104846 
L 1001.149283 121.072856 
L 985.401268 111.533254 
L 969.35995 102.495548 
L 953.041319 93.968747 
L 936.461644 85.961352 
L 919.63745 78.481344 
L 902.585509 71.53618 
L 885.322817 65.132782 
L 867.866584 59.277534 
L 850.234209 53.976273 
L 832.443269 49.234282 
L 814.511499 45.056288 
L 796.456773 41.446457 
L 778.297088 38.408387 
L 760.050547 35.945106 
L 741.735338 34.059069 
L 723.369718 32.752157 
L 704.971995 32.025672 
L 686.560507 31.880339 
L 668.153607 32.316302 
L 649.769645 33.333127 
L 631.426944 34.929801 
L 613.143791 37.104731 
L 594.93841 39.855749 
L 576.828948 43.180114 
L 558.833457 47.074512 
L 540.969876 51.53506 
L 523.256012 56.557312 
L 505.709521 62.136262 
L 488.347895 68.266349 
L 471.188441 74.941461 
L 454.248262 82.154946 
L 437.544246 89.899613 
L 421.093043 98.167741 
L 404.911052 106.951089 
L 389.014405 116.240901 
L 373.418946 126.027917 
L 358.140222 136.302381 
L 343.193463 147.054051 
L 328.593569 158.27221 
L 314.355092 169.945675 
L 300.492226 182.06281 
L 287.01879 194.611537 
L 273.948214 207.579346 
L 261.293528 220.95331 
L 249.067345 234.720099 
L 237.281854 248.86599 
L 225.948802 263.37688 
L 215.079487 278.238307 
L 204.684742 293.435455 
L 194.774931 308.953175 
L 185.35993 324.776 
L 176.449126 340.888156 
L 168.0514 357.273583 
L 160.175124 373.915947 
L 152.828148 390.798659 
L 146.017798 407.90489 
L 139.75086 425.217588 
L 134.033583 442.719495 
L 128.871665 460.393165 
L 124.270252 478.220981 
L 120.233931 496.185171 
L 116.766725 514.267829 
L 113.87209 532.450928 
L 111.552913 550.716344 
L 109.811503 569.04587 
L 108.649599 587.421234 
L 108.068357 605.824119 
L 108.068357 624.23618 
L 108.649599 642.639065 
L 109.811503 661.014429 
L 111.552913 679.343954 
L 112.728162 688.6 
M 1269.670586 688.6 
L 1269.68692 688.485816 
L 1271.717466 670.186065 
L 1273.169304 651.831333 
L 1274.040986 633.439917 
L 1274.331643 615.030149 
L 1274.331643 615.030149 
" style="fill:none;stroke:#ff7f0e;stroke-linecap:square;stroke-width:1.5;"/>
   </g>
   <g id="line2d_25">
    <path clip-path="url(#pb6ca96dd1a)" d="M 1246.56174 615.030149 
L 1247.86297 614.959987 
L 1248.209296 614.62914 
L 1248.528075 613.991756 
L 1248.94979 612.449477 
L 1248.94979 612.449477 
L 1249.294159 610.185728 
L 1249.550003 607.180235 
L 1249.550003 607.180235 
L 1249.733058 601.983897 
L 1249.733058 601.983897 
L 1249.708147 595.384058 
L 1249.708147 595.384058 
L 1249.443391 587.33147 
L 1249.443391 587.33147 
L 1248.904559 577.776126 
L 1248.904559 577.776126 
L 1248.051357 566.666556 
L 1248.051357 566.666556 
L 1247.156353 557.280185 
L 1245.987873 546.963271 
L 1245.987873 546.963271 
L 1244.490015 535.69355 
L 1242.624621 523.449867 
L 1242.624621 523.449867 
L 1240.372441 510.282385 
L 1237.775359 496.885397 
L 1237.775359 496.885397 
L 1234.858388 483.551498 
L 1231.624015 470.294353 
L 1231.624015 470.294353 
L 1228.074364 457.121639 
L 1224.211749 444.040968 
L 1224.211749 444.040968 
L 1220.038672 431.059885 
L 1215.557826 418.185859 
L 1215.557826 418.185859 
L 1210.772083 405.426282 
L 1205.6845 392.788462 
L 1205.6845 392.788462 
L 1200.298313 380.27962 
L 1194.616934 367.906883 
L 1194.616934 367.906883 
L 1188.643947 355.677282 
L 1182.383108 343.597746 
L 1182.383108 343.597746 
L 1175.83834 331.675099 
L 1169.013728 319.916055 
L 1169.013728 319.916055 
L 1161.913519 308.327215 
L 1154.542117 296.915061 
L 1154.542117 296.915061 
L 1146.904077 285.685955 
L 1139.004107 274.646133 
L 1139.004107 274.646133 
L 1130.847057 263.801704 
L 1122.437922 253.158643 
L 1122.437922 253.158643 
L 1113.781834 242.722794 
L 1104.884059 232.499857 
L 1104.884059 232.499857 
L 1095.749991 222.495396 
L 1086.385154 212.714829 
L 1086.385154 212.714829 
L 1076.79519 203.163427 
L 1066.98586 193.846312 
L 1066.98586 193.846312 
L 1056.963038 184.768455 
L 1046.732707 175.934672 
L 1046.732707 175.934672 
L 1036.300954 167.349623 
L 1025.673968 159.017811 
L 1025.673968 159.017811 
L 1014.858031 150.943577 
L 1003.859519 143.131103 
L 1003.859519 143.131103 
L 992.684892 135.584404 
L 981.340697 128.307332 
L 981.340697 128.307332 
L 969.833554 121.303572 
L 958.17016 114.576643 
L 958.17016 114.576643 
L 946.35728 108.129893 
L 934.401744 101.966501 
L 934.401744 101.966501 
L 922.310443 96.089476 
L 910.090322 90.501656 
L 910.090322 90.501656 
L 897.748378 85.205706 
L 885.291658 80.204117 
L 885.291658 80.204117 
L 872.727247 75.499212 
L 860.062272 71.093136 
L 860.062272 71.093136 
L 847.303892 66.987863 
L 834.459297 63.185193 
L 834.459297 63.185193 
L 821.535701 59.686754 
L 808.540342 56.493998 
L 808.540342 56.493998 
L 795.480472 53.608207 
L 782.363357 51.030489 
L 782.363357 51.030489 
L 769.196273 48.761781 
L 755.986499 46.802847 
L 755.986499 46.802847 
L 742.741318 45.154281 
L 729.468006 43.816506 
L 729.468006 43.816506 
L 716.173834 42.789777 
L 702.866061 42.07418 
L 702.866061 42.07418 
L 689.551934 41.669634 
L 676.238679 41.57589 
L 676.238679 41.57589 
L 662.933501 41.792534 
L 649.643577 42.31899 
L 649.643577 42.31899 
L 636.376059 43.154518 
L 623.138063 44.298216 
L 623.138063 44.298216 
L 609.93667 45.749022 
L 596.77892 47.505716 
L 596.77892 47.505716 
L 583.671812 49.566922 
L 570.622296 51.931105 
L 570.622296 51.931105 
L 557.637276 54.596581 
L 544.7236 57.561511 
L 544.7236 57.561511 
L 531.888064 60.823905 
L 519.137401 64.381627 
L 519.137401 64.381627 
L 506.478285 68.232392 
L 493.917325 72.373773 
L 493.917325 72.373773 
L 481.461063 76.803197 
L 469.115969 81.517952 
L 469.115969 81.517952 
L 456.888441 86.515187 
L 444.784803 91.791913 
L 444.784803 91.791913 
L 432.811297 97.345009 
L 420.974089 103.171219 
L 420.974089 103.171219 
L 409.279257 109.267156 
L 397.732797 115.629308 
L 397.732797 115.629308 
L 386.340616 122.254033 
L 375.108528 129.13757 
L 375.108528 129.13757 
L 364.042259 136.276031 
L 353.147436 143.665412 
L 353.147436 143.665412 
L 342.429591 151.301593 
L 331.894158 159.180337 
L 331.894158 159.180337 
L 321.546469 167.297296 
L 311.391751 175.648011 
L 311.391751 175.648011 
L 301.435128 184.227917 
L 291.681619 193.032343 
L 291.681619 193.032343 
L 282.13613 202.056517 
L 272.803461 211.295563 
L 272.803461 211.295563 
L 263.688296 220.744512 
L 254.795207 230.398297 
L 254.795207 230.398297 
L 246.128653 240.251757 
L 237.69297 250.299644 
L 237.69297 250.299644 
L 229.492382 260.53662 
L 221.530989 270.957262 
L 221.530989 270.957262 
L 213.81277 281.556065 
L 206.341582 292.327443 
L 206.341582 292.327443 
L 199.121158 303.265733 
L 192.155105 314.365196 
L 192.155105 314.365196 
L 185.446904 325.620021 
L 178.999905 337.024328 
L 178.999905 337.024328 
L 172.817334 348.572168 
L 166.902283 360.257528 
L 166.902283 360.257528 
L 161.257713 372.074333 
L 155.886454 384.016448 
L 155.886454 384.016448 
L 150.791201 396.077682 
L 145.974517 408.251788 
L 145.974517 408.251788 
L 141.438827 420.53247 
L 137.186421 432.91338 
L 137.186421 432.91338 
L 133.221041 445.380597 
L 131.959295 449.575135 
L 131.959295 449.575135 
" style="fill:none;stroke:#2ca02c;stroke-linecap:square;stroke-width:1.5;"/>
   </g>
   <g id="line2d_26">
    <path clip-path="url(#pb6ca96dd1a)" d="M 1246.56174 615.030149 
L 1247.86297 614.959987 
L 1248.039954 614.83291 
L 1248.039954 614.83291 
L 1248.122922 614.349259 
L 1248.122922 614.349259 
L 1248.139352 611.029267 
L 1248.139352 611.029267 
L 1247.969142 600.513792 
L 1247.577041 589.573063 
L 1246.921033 577.908614 
L 1246.921033 577.908614 
L 1246.070871 566.838554 
L 1246.070871 566.838554 
L 1244.823983 554.162974 
L 1244.823983 554.162974 
L 1243.556532 543.568621 
L 1241.93928 532.018658 
L 1241.93928 532.018658 
L 1239.905023 519.491396 
L 1237.431156 506.23403 
L 1237.431156 506.23403 
L 1234.612851 492.932735 
L 1231.472263 479.710385 
L 1231.472263 479.710385 
L 1228.011799 466.57504 
L 1224.234079 453.534676 
L 1224.234079 453.534676 
L 1220.141932 440.597181 
L 1215.738393 427.770346 
L 1215.738393 427.770346 
L 1211.026698 415.061864 
L 1206.010285 402.47932 
L 1206.010285 402.47932 
L 1200.692782 390.030186 
L 1195.078011 377.721819 
L 1195.078011 377.721819 
L 1189.169977 365.561452 
L 1182.972868 353.55619 
L 1182.972868 353.55619 
L 1176.491048 341.713009 
L 1169.729055 330.038745 
L 1169.729055 330.038745 
L 1162.69159 318.540095 
L 1155.383521 307.223609 
L 1155.383521 307.223609 
L 1147.809869 296.095691 
L 1139.975809 285.16259 
L 1139.975809 285.16259 
L 1131.886661 274.430398 
L 1123.547888 263.905049 
L 1123.547888 263.905049 
L 1114.965088 253.592313 
L 1106.143988 243.497796 
L 1106.143988 243.497796 
L 1097.090441 233.626934 
L 1087.810419 223.984992 
L 1087.810419 223.984992 
L 1078.310007 214.577064 
L 1068.5954 205.408066 
L 1068.5954 205.408066 
L 1058.672892 196.482738 
L 1048.548877 187.805642 
L 1048.548877 187.805642 
L 1038.229838 179.38116 
L 1027.722345 171.21349 
L 1027.722345 171.21349 
L 1017.033048 163.306651 
L 1006.168669 155.664475 
L 1006.168669 155.664475 
L 995.136002 148.290613 
L 983.941904 141.18853 
L 983.941904 141.18853 
L 972.593288 134.361505 
L 961.097122 127.812633 
L 961.097122 127.812633 
L 949.460419 121.544823 
L 937.690237 115.5608 
L 937.690237 115.5608 
L 925.793669 109.863104 
L 913.77784 104.45409 
L 913.77784 104.45409 
L 901.649902 99.33593 
L 889.41703 94.510612 
L 889.41703 94.510612 
L 877.086414 89.979945 
L 864.665258 85.745553 
L 864.665258 85.745553 
L 852.160773 81.808883 
L 839.580173 78.171203 
L 839.580173 78.171203 
L 826.93067 74.833602 
L 814.219471 71.796997 
L 814.219471 71.796997 
L 801.453774 69.062126 
L 788.640761 66.62956 
L 788.640761 66.62956 
L 775.787596 64.499694 
L 762.901421 62.672759 
L 762.901421 62.672759 
L 749.989353 61.148816 
L 737.058479 59.927763 
L 737.058479 59.927763 
L 724.11585 59.009334 
L 711.168484 58.393103 
L 711.168484 58.393103 
L 698.223357 58.078486 
L 685.2874 58.064742 
L 685.2874 58.064742 
L 672.3675 58.350978 
L 659.470493 58.936148 
L 659.470493 58.936148 
L 646.603162 59.819056 
L 633.772235 60.998363 
L 633.772235 60.998363 
L 620.98438 62.472582 
L 608.246208 64.240087 
L 608.246208 64.240087 
L 595.564262 66.299111 
L 582.945022 68.647753 
L 582.945022 68.647753 
L 570.394898 71.283974 
L 557.92023 74.205607 
L 557.92023 74.205607 
L 545.527287 77.410354 
L 533.222261 80.895791 
L 533.222261 80.895791 
L 521.011268 84.659372 
L 508.900347 88.698426 
L 508.900347 88.698426 
L 496.895453 93.010166 
L 485.002464 97.591689 
L 485.002464 97.591689 
L 473.22717 102.439976 
L 461.575278 107.5519 
L 461.575278 107.5519 
L 450.052407 112.924221 
L 438.66409 118.553597 
L 438.66409 118.553597 
L 427.415769 124.436581 
L 416.312795 130.569623 
L 416.312795 130.569623 
L 405.360429 136.949076 
L 394.563837 143.571196 
L 394.563837 143.571196 
L 383.928092 150.432145 
L 373.458171 157.527993 
L 373.458171 157.527993 
L 363.158958 164.854721 
L 353.035236 172.408223 
L 353.035236 172.408223 
L 343.091692 180.184308 
L 333.332916 188.178701 
L 333.332916 188.178701 
L 323.763395 196.387048 
L 314.38752 204.804917 
L 314.38752 204.804917 
L 305.209578 213.427799 
L 296.233756 222.251112 
L 296.233756 222.251112 
L 287.464139 231.270201 
L 278.904708 240.480342 
L 278.904708 240.480342 
L 270.559344 249.876742 
L 262.43182 259.454544 
L 262.43182 259.454544 
L 254.525808 269.208825 
L 246.844874 279.134602 
L 246.844874 279.134602 
L 239.392479 289.226831 
L 232.171979 299.480409 
L 232.171979 299.480409 
L 225.186621 309.890179 
L 218.43955 320.450928 
L 218.43955 320.450928 
L 211.9338 331.157389 
L 205.672301 342.004248 
L 205.672301 342.004248 
L 199.657873 352.986138 
L 193.893229 364.097646 
L 193.893229 364.097646 
L 188.380973 375.333314 
L 183.123602 386.687639 
L 183.123602 386.687639 
L 178.1235 398.155076 
L 173.382945 409.730041 
L 173.382945 409.730041 
L 168.904104 421.406908 
L 164.689034 433.180015 
L 164.689034 433.180015 
L 160.73968 445.043665 
L 157.05541 457.000467 
L 157.05541 457.000467 
" style="fill:none;stroke:#d62728;stroke-linecap:square;stroke-width:1.5;"/>
   </g>
   <g id="patch_3">
    <path d="M 88.594892 629.785204 
L 88.594892 18.118365 
" style="fill:none;stroke:#000000;stroke-linecap:square;stroke-linejoin:miter;stroke-width:0.8;"/>
   </g>
   <g id="patch_4">
    <path d="M 1293.805108 629.785204 
L 1293.805108 18.118365 
" style="fill:none;stroke:#000000;stroke-linecap:square;stroke-linejoin:miter;stroke-width:0.8;"/>
   </g>
   <g id="patch_5">
    <path d="M 88.594892 629.785204 
L 1293.805108 629.785204 
" style="fill:none;stroke:#000000;stroke-linecap:square;stroke-linejoin:miter;stroke-width:0.8;"/>
   </g>
   <g id="patch_6">
    <path d="M 88.594892 18.118365 
L 1293.805108 18.118365 
" style="fill:none;stroke:#000000;stroke-linecap:square;stroke-linejoin:miter;stroke-width:0.8;"/>
   </g>
   <g id="text_14">
    <!-- Optimal ascent trajectory -->
    <defs>
     <path d="M 39.40625 66.21875 
Q 28.65625 66.21875 22.328125 58.203125 
Q 16.015625 50.203125 16.015625 36.375 
Q 16.015625 22.609375 22.328125 14.59375 
Q 28.65625 6.59375 39.40625 6.59375 
Q 50.140625 6.59375 56.421875 14.59375 
Q 62.703125 22.609375 62.703125 36.375 
Q 62.703125 50.203125 56.421875 58.203125 
Q 50.140625 66.21875 39.40625 66.21875 
z
M 39.40625 74.21875 
Q 54.734375 74.21875 63.90625 63.9375 
Q 73.09375 53.65625 73.09375 36.375 
Q 73.09375 19.140625 63.90625 8.859375 
Q 54.734375 -1.421875 39.40625 -1.421875 
Q 24.03125 -1.421875 14.8125 8.828125 
Q 5.609375 19.09375 5.609375 36.375 
Q 5.609375 53.65625 14.8125 63.9375 
Q 24.03125 74.21875 39.40625 74.21875 
z
" id="DejaVuSans-79"/>
     <path d="M 18.109375 8.203125 
L 18.109375 -20.796875 
L 9.078125 -20.796875 
L 9.078125 54.6875 
L 18.109375 54.6875 
L 18.109375 46.390625 
Q 20.953125 51.265625 25.265625 53.625 
Q 29.59375 56 35.59375 56 
Q 45.5625 56 51.78125 48.09375 
Q 58.015625 40.1875 58.015625 27.296875 
Q 58.015625 14.40625 51.78125 6.484375 
Q 45.5625 -1.421875 35.59375 -1.421875 
Q 29.59375 -1.421875 25.265625 0.953125 
Q 20.953125 3.328125 18.109375 8.203125 
z
M 48.6875 27.296875 
Q 48.6875 37.203125 44.609375 42.84375 
Q 40.53125 48.484375 33.40625 48.484375 
Q 26.265625 48.484375 22.1875 42.84375 
Q 18.109375 37.203125 18.109375 27.296875 
Q 18.109375 17.390625 22.1875 11.75 
Q 26.265625 6.109375 33.40625 6.109375 
Q 40.53125 6.109375 44.609375 11.75 
Q 48.6875 17.390625 48.6875 27.296875 
z
" id="DejaVuSans-112"/>
     <path d="M 18.3125 70.21875 
L 18.3125 54.6875 
L 36.8125 54.6875 
L 36.8125 47.703125 
L 18.3125 47.703125 
L 18.3125 18.015625 
Q 18.3125 11.328125 20.140625 9.421875 
Q 21.96875 7.515625 27.59375 7.515625 
L 36.8125 7.515625 
L 36.8125 0 
L 27.59375 0 
Q 17.1875 0 13.234375 3.875 
Q 9.28125 7.765625 9.28125 18.015625 
L 9.28125 47.703125 
L 2.6875 47.703125 
L 2.6875 54.6875 
L 9.28125 54.6875 
L 9.28125 70.21875 
z
" id="DejaVuSans-116"/>
     <path d="M 9.421875 54.6875 
L 18.40625 54.6875 
L 18.40625 0 
L 9.421875 0 
z
M 9.421875 75.984375 
L 18.40625 75.984375 
L 18.40625 64.59375 
L 9.421875 64.59375 
z
" id="DejaVuSans-105"/>
     <path d="M 34.28125 27.484375 
Q 23.390625 27.484375 19.1875 25 
Q 14.984375 22.515625 14.984375 16.5 
Q 14.984375 11.71875 18.140625 8.90625 
Q 21.296875 6.109375 26.703125 6.109375 
Q 34.1875 6.109375 38.703125 11.40625 
Q 43.21875 16.703125 43.21875 25.484375 
L 43.21875 27.484375 
z
M 52.203125 31.203125 
L 52.203125 0 
L 43.21875 0 
L 43.21875 8.296875 
Q 40.140625 3.328125 35.546875 0.953125 
Q 30.953125 -1.421875 24.3125 -1.421875 
Q 15.921875 -1.421875 10.953125 3.296875 
Q 6 8.015625 6 15.921875 
Q 6 25.140625 12.171875 29.828125 
Q 18.359375 34.515625 30.609375 34.515625 
L 43.21875 34.515625 
L 43.21875 35.40625 
Q 43.21875 41.609375 39.140625 45 
Q 35.0625 48.390625 27.6875 48.390625 
Q 23 48.390625 18.546875 47.265625 
Q 14.109375 46.140625 10.015625 43.890625 
L 10.015625 52.203125 
Q 14.9375 54.109375 19.578125 55.046875 
Q 24.21875 56 28.609375 56 
Q 40.484375 56 46.34375 49.84375 
Q 52.203125 43.703125 52.203125 31.203125 
z
" id="DejaVuSans-97"/>
     <path d="M 9.421875 75.984375 
L 18.40625 75.984375 
L 18.40625 0 
L 9.421875 0 
z
" id="DejaVuSans-108"/>
     <path d="M 44.28125 53.078125 
L 44.28125 44.578125 
Q 40.484375 46.53125 36.375 47.5 
Q 32.28125 48.484375 27.875 48.484375 
Q 21.1875 48.484375 17.84375 46.4375 
Q 14.5 44.390625 14.5 40.28125 
Q 14.5 37.15625 16.890625 35.375 
Q 19.28125 33.59375 26.515625 31.984375 
L 29.59375 31.296875 
Q 39.15625 29.25 43.1875 25.515625 
Q 47.21875 21.78125 47.21875 15.09375 
Q 47.21875 7.46875 41.1875 3.015625 
Q 35.15625 -1.421875 24.609375 -1.421875 
Q 20.21875 -1.421875 15.453125 -0.5625 
Q 10.6875 0.296875 5.421875 2 
L 5.421875 11.28125 
Q 10.40625 8.6875 15.234375 7.390625 
Q 20.0625 6.109375 24.8125 6.109375 
Q 31.15625 6.109375 34.5625 8.28125 
Q 37.984375 10.453125 37.984375 14.40625 
Q 37.984375 18.0625 35.515625 20.015625 
Q 33.0625 21.96875 24.703125 23.78125 
L 21.578125 24.515625 
Q 13.234375 26.265625 9.515625 29.90625 
Q 5.8125 33.546875 5.8125 39.890625 
Q 5.8125 47.609375 11.28125 51.796875 
Q 16.75 56 26.8125 56 
Q 31.78125 56 36.171875 55.265625 
Q 40.578125 54.546875 44.28125 53.078125 
z
" id="DejaVuSans-115"/>
     <path d="M 48.78125 52.59375 
L 48.78125 44.1875 
Q 44.96875 46.296875 41.140625 47.34375 
Q 37.3125 48.390625 33.40625 48.390625 
Q 24.65625 48.390625 19.8125 42.84375 
Q 14.984375 37.3125 14.984375 27.296875 
Q 14.984375 17.28125 19.8125 11.734375 
Q 24.65625 6.203125 33.40625 6.203125 
Q 37.3125 6.203125 41.140625 7.25 
Q 44.96875 8.296875 48.78125 10.40625 
L 48.78125 2.09375 
Q 45.015625 0.34375 40.984375 -0.53125 
Q 36.96875 -1.421875 32.421875 -1.421875 
Q 20.0625 -1.421875 12.78125 6.34375 
Q 5.515625 14.109375 5.515625 27.296875 
Q 5.515625 40.671875 12.859375 48.328125 
Q 20.21875 56 33.015625 56 
Q 37.15625 56 41.109375 55.140625 
Q 45.0625 54.296875 48.78125 52.59375 
z
" id="DejaVuSans-99"/>
     <path d="M 56.203125 29.59375 
L 56.203125 25.203125 
L 14.890625 25.203125 
Q 15.484375 15.921875 20.484375 11.0625 
Q 25.484375 6.203125 34.421875 6.203125 
Q 39.59375 6.203125 44.453125 7.46875 
Q 49.3125 8.734375 54.109375 11.28125 
L 54.109375 2.78125 
Q 49.265625 0.734375 44.1875 -0.34375 
Q 39.109375 -1.421875 33.890625 -1.421875 
Q 20.796875 -1.421875 13.15625 6.1875 
Q 5.515625 13.8125 5.515625 26.8125 
Q 5.515625 40.234375 12.765625 48.109375 
Q 20.015625 56 32.328125 56 
Q 43.359375 56 49.78125 48.890625 
Q 56.203125 41.796875 56.203125 29.59375 
z
M 47.21875 32.234375 
Q 47.125 39.59375 43.09375 43.984375 
Q 39.0625 48.390625 32.421875 48.390625 
Q 24.90625 48.390625 20.390625 44.140625 
Q 15.875 39.890625 15.1875 32.171875 
z
" id="DejaVuSans-101"/>
     <path d="M 54.890625 33.015625 
L 54.890625 0 
L 45.90625 0 
L 45.90625 32.71875 
Q 45.90625 40.484375 42.875 44.328125 
Q 39.84375 48.1875 33.796875 48.1875 
Q 26.515625 48.1875 22.3125 43.546875 
Q 18.109375 38.921875 18.109375 30.90625 
L 18.109375 0 
L 9.078125 0 
L 9.078125 54.6875 
L 18.109375 54.6875 
L 18.109375 46.1875 
Q 21.34375 51.125 25.703125 53.5625 
Q 30.078125 56 35.796875 56 
Q 45.21875 56 50.046875 50.171875 
Q 54.890625 44.34375 54.890625 33.015625 
z
" id="DejaVuSans-110"/>
     <path d="M 41.109375 46.296875 
Q 39.59375 47.171875 37.8125 47.578125 
Q 36.03125 48 33.890625 48 
Q 26.265625 48 22.1875 43.046875 
Q 18.109375 38.09375 18.109375 28.8125 
L 18.109375 0 
L 9.078125 0 
L 9.078125 54.6875 
L 18.109375 54.6875 
L 18.109375 46.1875 
Q 20.953125 51.171875 25.484375 53.578125 
Q 30.03125 56 36.53125 56 
Q 37.453125 56 38.578125 55.875 
Q 39.703125 55.765625 41.0625 55.515625 
z
" id="DejaVuSans-114"/>
     <path d="M 9.421875 54.6875 
L 18.40625 54.6875 
L 18.40625 -0.984375 
Q 18.40625 -11.421875 14.421875 -16.109375 
Q 10.453125 -20.796875 1.609375 -20.796875 
L -1.8125 -20.796875 
L -1.8125 -13.1875 
L 0.59375 -13.1875 
Q 5.71875 -13.1875 7.5625 -10.8125 
Q 9.421875 -8.453125 9.421875 -0.984375 
z
M 9.421875 75.984375 
L 18.40625 75.984375 
L 18.40625 64.59375 
L 9.421875 64.59375 
z
" id="DejaVuSans-106"/>
     <path d="M 30.609375 48.390625 
Q 23.390625 48.390625 19.1875 42.75 
Q 14.984375 37.109375 14.984375 27.296875 
Q 14.984375 17.484375 19.15625 11.84375 
Q 23.34375 6.203125 30.609375 6.203125 
Q 37.796875 6.203125 41.984375 11.859375 
Q 46.1875 17.53125 46.1875 27.296875 
Q 46.1875 37.015625 41.984375 42.703125 
Q 37.796875 48.390625 30.609375 48.390625 
z
M 30.609375 56 
Q 42.328125 56 49.015625 48.375 
Q 55.71875 40.765625 55.71875 27.296875 
Q 55.71875 13.875 49.015625 6.21875 
Q 42.328125 -1.421875 30.609375 -1.421875 
Q 18.84375 -1.421875 12.171875 6.21875 
Q 5.515625 13.875 5.515625 27.296875 
Q 5.515625 40.765625 12.171875 48.375 
Q 18.84375 56 30.609375 56 
z
" id="DejaVuSans-111"/>
    </defs>
    <g transform="translate(614.504062 12.118365)scale(0.12 -0.12)">
     <use xlink:href="#DejaVuSans-79"/>
     <use x="78.710938" xlink:href="#DejaVuSans-112"/>
     <use x="142.1875" xlink:href="#DejaVuSans-116"/>
     <use x="181.396484" xlink:href="#DejaVuSans-105"/>
     <use x="209.179688" xlink:href="#DejaVuSans-109"/>
     <use x="306.591797" xlink:href="#DejaVuSans-97"/>
     <use x="367.871094" xlink:href="#DejaVuSans-108"/>
     <use x="395.654297" xlink:href="#DejaVuSans-32"/>
     <use x="427.441406" xlink:href="#DejaVuSans-97"/>
     <use x="488.720703" xlink:href="#DejaVuSans-115"/>
     <use x="540.820312" xlink:href="#DejaVuSans-99"/>
     <use x="595.800781" xlink:href="#DejaVuSans-101"/>
     <use x="657.324219" xlink:href="#DejaVuSans-110"/>
     <use x="720.703125" xlink:href="#DejaVuSans-116"/>
     <use x="759.912109" xlink:href="#DejaVuSans-32"/>
     <use x="791.699219" xlink:href="#DejaVuSans-116"/>
     <use x="830.908203" xlink:href="#DejaVuSans-114"/>
     <use x="872.021484" xlink:href="#DejaVuSans-97"/>
     <use x="933.300781" xlink:href="#DejaVuSans-106"/>
     <use x="961.083984" xlink:href="#DejaVuSans-101"/>
     <use x="1022.607422" xlink:href="#DejaVuSans-99"/>
     <use x="1077.587891" xlink:href="#DejaVuSans-116"/>
     <use x="1116.796875" xlink:href="#DejaVuSans-111"/>
     <use x="1177.978516" xlink:href="#DejaVuSans-114"/>
     <use x="1219.091797" xlink:href="#DejaVuSans-121"/>
    </g>
   </g>
   <g id="legend_1">
    <g id="patch_7">
     <path d="M 1169.009795 84.830865 
L 1286.805108 84.830865 
Q 1288.805108 84.830865 1288.805108 82.830865 
L 1288.805108 25.118365 
Q 1288.805108 23.118365 1286.805108 23.118365 
L 1169.009795 23.118365 
Q 1167.009795 23.118365 1167.009795 25.118365 
L 1167.009795 82.830865 
Q 1167.009795 84.830865 1169.009795 84.830865 
z
" style="fill:#ffffff;opacity:0.8;stroke:#cccccc;stroke-linejoin:miter;"/>
    </g>
    <g id="line2d_27">
     <path d="M 1171.009795 31.216802 
L 1191.009795 31.216802 
" style="fill:none;stroke:#1f77b4;stroke-linecap:square;stroke-width:1.5;"/>
    </g>
    <g id="line2d_28"/>
    <g id="text_15">
     <!-- Moon surface -->
     <defs>
      <path d="M 9.8125 72.90625 
L 24.515625 72.90625 
L 43.109375 23.296875 
L 61.8125 72.90625 
L 76.515625 72.90625 
L 76.515625 0 
L 66.890625 0 
L 66.890625 64.015625 
L 48.09375 14.015625 
L 38.1875 14.015625 
L 19.390625 64.015625 
L 19.390625 0 
L 9.8125 0 
z
" id="DejaVuSans-77"/>
      <path d="M 8.5 21.578125 
L 8.5 54.6875 
L 17.484375 54.6875 
L 17.484375 21.921875 
Q 17.484375 14.15625 20.5 10.265625 
Q 23.53125 6.390625 29.59375 6.390625 
Q 36.859375 6.390625 41.078125 11.03125 
Q 45.3125 15.671875 45.3125 23.6875 
L 45.3125 54.6875 
L 54.296875 54.6875 
L 54.296875 0 
L 45.3125 0 
L 45.3125 8.40625 
Q 42.046875 3.421875 37.71875 1 
Q 33.40625 -1.421875 27.6875 -1.421875 
Q 18.265625 -1.421875 13.375 4.4375 
Q 8.5 10.296875 8.5 21.578125 
z
M 31.109375 56 
z
" id="DejaVuSans-117"/>
      <path d="M 37.109375 75.984375 
L 37.109375 68.5 
L 28.515625 68.5 
Q 23.6875 68.5 21.796875 66.546875 
Q 19.921875 64.59375 19.921875 59.515625 
L 19.921875 54.6875 
L 34.71875 54.6875 
L 34.71875 47.703125 
L 19.921875 47.703125 
L 19.921875 0 
L 10.890625 0 
L 10.890625 47.703125 
L 2.296875 47.703125 
L 2.296875 54.6875 
L 10.890625 54.6875 
L 10.890625 58.5 
Q 10.890625 67.625 15.140625 71.796875 
Q 19.390625 75.984375 28.609375 75.984375 
z
" id="DejaVuSans-102"/>
     </defs>
     <g transform="translate(1199.009795 34.716802)scale(0.1 -0.1)">
      <use xlink:href="#DejaVuSans-77"/>
      <use x="86.279297" xlink:href="#DejaVuSans-111"/>
      <use x="147.460938" xlink:href="#DejaVuSans-111"/>
      <use x="208.642578" xlink:href="#DejaVuSans-110"/>
      <use x="272.021484" xlink:href="#DejaVuSans-32"/>
      <use x="303.808594" xlink:href="#DejaVuSans-115"/>
      <use x="355.908203" xlink:href="#DejaVuSans-117"/>
      <use x="419.287109" xlink:href="#DejaVuSans-114"/>
      <use x="460.400391" xlink:href="#DejaVuSans-102"/>
      <use x="495.605469" xlink:href="#DejaVuSans-97"/>
      <use x="556.884766" xlink:href="#DejaVuSans-99"/>
      <use x="611.865234" xlink:href="#DejaVuSans-101"/>
     </g>
    </g>
    <g id="line2d_29">
     <path d="M 1171.009795 45.894927 
L 1191.009795 45.894927 
" style="fill:none;stroke:#ff7f0e;stroke-linecap:square;stroke-width:1.5;"/>
    </g>
    <g id="line2d_30"/>
    <g id="text_16">
     <!-- Target orbit -->
     <defs>
      <path d="M -0.296875 72.90625 
L 61.375 72.90625 
L 61.375 64.59375 
L 35.5 64.59375 
L 35.5 0 
L 25.59375 0 
L 25.59375 64.59375 
L -0.296875 64.59375 
z
" id="DejaVuSans-84"/>
      <path d="M 45.40625 27.984375 
Q 45.40625 37.75 41.375 43.109375 
Q 37.359375 48.484375 30.078125 48.484375 
Q 22.859375 48.484375 18.828125 43.109375 
Q 14.796875 37.75 14.796875 27.984375 
Q 14.796875 18.265625 18.828125 12.890625 
Q 22.859375 7.515625 30.078125 7.515625 
Q 37.359375 7.515625 41.375 12.890625 
Q 45.40625 18.265625 45.40625 27.984375 
z
M 54.390625 6.78125 
Q 54.390625 -7.171875 48.1875 -13.984375 
Q 42 -20.796875 29.203125 -20.796875 
Q 24.46875 -20.796875 20.265625 -20.09375 
Q 16.0625 -19.390625 12.109375 -17.921875 
L 12.109375 -9.1875 
Q 16.0625 -11.328125 19.921875 -12.34375 
Q 23.78125 -13.375 27.78125 -13.375 
Q 36.625 -13.375 41.015625 -8.765625 
Q 45.40625 -4.15625 45.40625 5.171875 
L 45.40625 9.625 
Q 42.625 4.78125 38.28125 2.390625 
Q 33.9375 0 27.875 0 
Q 17.828125 0 11.671875 7.65625 
Q 5.515625 15.328125 5.515625 27.984375 
Q 5.515625 40.671875 11.671875 48.328125 
Q 17.828125 56 27.875 56 
Q 33.9375 56 38.28125 53.609375 
Q 42.625 51.21875 45.40625 46.390625 
L 45.40625 54.6875 
L 54.390625 54.6875 
z
" id="DejaVuSans-103"/>
      <path d="M 48.6875 27.296875 
Q 48.6875 37.203125 44.609375 42.84375 
Q 40.53125 48.484375 33.40625 48.484375 
Q 26.265625 48.484375 22.1875 42.84375 
Q 18.109375 37.203125 18.109375 27.296875 
Q 18.109375 17.390625 22.1875 11.75 
Q 26.265625 6.109375 33.40625 6.109375 
Q 40.53125 6.109375 44.609375 11.75 
Q 48.6875 17.390625 48.6875 27.296875 
z
M 18.109375 46.390625 
Q 20.953125 51.265625 25.265625 53.625 
Q 29.59375 56 35.59375 56 
Q 45.5625 56 51.78125 48.09375 
Q 58.015625 40.1875 58.015625 27.296875 
Q 58.015625 14.40625 51.78125 6.484375 
Q 45.5625 -1.421875 35.59375 -1.421875 
Q 29.59375 -1.421875 25.265625 0.953125 
Q 20.953125 3.328125 18.109375 8.203125 
L 18.109375 0 
L 9.078125 0 
L 9.078125 75.984375 
L 18.109375 75.984375 
z
" id="DejaVuSans-98"/>
     </defs>
     <g transform="translate(1199.009795 49.394927)scale(0.1 -0.1)">
      <use xlink:href="#DejaVuSans-84"/>
      <use x="60.833984" xlink:href="#DejaVuSans-97"/>
      <use x="122.113281" xlink:href="#DejaVuSans-114"/>
      <use x="163.210938" xlink:href="#DejaVuSans-103"/>
      <use x="226.6875" xlink:href="#DejaVuSans-101"/>
      <use x="288.210938" xlink:href="#DejaVuSans-116"/>
      <use x="327.419922" xlink:href="#DejaVuSans-32"/>
      <use x="359.207031" xlink:href="#DejaVuSans-111"/>
      <use x="420.388672" xlink:href="#DejaVuSans-114"/>
      <use x="461.501953" xlink:href="#DejaVuSans-98"/>
      <use x="524.978516" xlink:href="#DejaVuSans-105"/>
      <use x="552.761719" xlink:href="#DejaVuSans-116"/>
     </g>
    </g>
    <g id="line2d_31">
     <path d="M 1171.009795 60.573052 
L 1191.009795 60.573052 
" style="fill:none;stroke:#2ca02c;stroke-linecap:square;stroke-width:1.5;"/>
    </g>
    <g id="line2d_32"/>
    <g id="text_17">
     <!-- Ascent trajectory -->
     <defs>
      <path d="M 34.1875 63.1875 
L 20.796875 26.90625 
L 47.609375 26.90625 
z
M 28.609375 72.90625 
L 39.796875 72.90625 
L 67.578125 0 
L 57.328125 0 
L 50.6875 18.703125 
L 17.828125 18.703125 
L 11.1875 0 
L 0.78125 0 
z
" id="DejaVuSans-65"/>
     </defs>
     <g transform="translate(1199.009795 64.073052)scale(0.1 -0.1)">
      <use xlink:href="#DejaVuSans-65"/>
      <use x="68.408203" xlink:href="#DejaVuSans-115"/>
      <use x="120.507812" xlink:href="#DejaVuSans-99"/>
      <use x="175.488281" xlink:href="#DejaVuSans-101"/>
      <use x="237.011719" xlink:href="#DejaVuSans-110"/>
      <use x="300.390625" xlink:href="#DejaVuSans-116"/>
      <use x="339.599609" xlink:href="#DejaVuSans-32"/>
      <use x="371.386719" xlink:href="#DejaVuSans-116"/>
      <use x="410.595703" xlink:href="#DejaVuSans-114"/>
      <use x="451.708984" xlink:href="#DejaVuSans-97"/>
      <use x="512.988281" xlink:href="#DejaVuSans-106"/>
      <use x="540.771484" xlink:href="#DejaVuSans-101"/>
      <use x="602.294922" xlink:href="#DejaVuSans-99"/>
      <use x="657.275391" xlink:href="#DejaVuSans-116"/>
      <use x="696.484375" xlink:href="#DejaVuSans-111"/>
      <use x="757.666016" xlink:href="#DejaVuSans-114"/>
      <use x="798.779297" xlink:href="#DejaVuSans-121"/>
     </g>
    </g>
    <g id="line2d_33">
     <path d="M 1171.009795 75.251177 
L 1191.009795 75.251177 
" style="fill:none;stroke:#d62728;stroke-linecap:square;stroke-width:1.5;"/>
    </g>
    <g id="line2d_34"/>
    <g id="text_18">
     <!-- Constraint -->
     <defs>
      <path d="M 64.40625 67.28125 
L 64.40625 56.890625 
Q 59.421875 61.53125 53.78125 63.8125 
Q 48.140625 66.109375 41.796875 66.109375 
Q 29.296875 66.109375 22.65625 58.46875 
Q 16.015625 50.828125 16.015625 36.375 
Q 16.015625 21.96875 22.65625 14.328125 
Q 29.296875 6.6875 41.796875 6.6875 
Q 48.140625 6.6875 53.78125 8.984375 
Q 59.421875 11.28125 64.40625 15.921875 
L 64.40625 5.609375 
Q 59.234375 2.09375 53.4375 0.328125 
Q 47.65625 -1.421875 41.21875 -1.421875 
Q 24.65625 -1.421875 15.125 8.703125 
Q 5.609375 18.84375 5.609375 36.375 
Q 5.609375 53.953125 15.125 64.078125 
Q 24.65625 74.21875 41.21875 74.21875 
Q 47.75 74.21875 53.53125 72.484375 
Q 59.328125 70.75 64.40625 67.28125 
z
" id="DejaVuSans-67"/>
     </defs>
     <g transform="translate(1199.009795 78.751177)scale(0.1 -0.1)">
      <use xlink:href="#DejaVuSans-67"/>
      <use x="69.824219" xlink:href="#DejaVuSans-111"/>
      <use x="131.005859" xlink:href="#DejaVuSans-110"/>
      <use x="194.384766" xlink:href="#DejaVuSans-115"/>
      <use x="246.484375" xlink:href="#DejaVuSans-116"/>
      <use x="285.693359" xlink:href="#DejaVuSans-114"/>
      <use x="326.806641" xlink:href="#DejaVuSans-97"/>
      <use x="388.085938" xlink:href="#DejaVuSans-105"/>
      <use x="415.869141" xlink:href="#DejaVuSans-110"/>
      <use x="479.248047" xlink:href="#DejaVuSans-116"/>
     </g>
    </g>
   </g>
  </g>
 </g>
 <defs>
  <clipPath id="pb6ca96dd1a">
   <rect height="611.666839" width="1205.210216" x="88.594892" y="18.118365"/>
  </clipPath>
 </defs>
</svg>
